<svg xmlns="http://www.w3.org/2000/svg" width="16" height="16" fill="none" viewBox="0 0 35 35"><path fill="#F4E041" d="M28.779 22.604c.138.994-.239 1.943-.92 2.538a2.52 2.52 0 0 1-1.843.625q-.014 0-.027-.002a2.78 2.78 0 0 1-1.808-.855c-.757-.804-.735-1.802-.726-2.011q0-.15.017-.295h-8.218q.016.145.016.295c.01.209.031 1.207-.725 2.01a2.78 2.78 0 0 1-1.808.856q-.015.003-.028.002a2.55 2.55 0 0 1-1.433-.33 2.6 2.6 0 0 1-.41-.293v-.002a2.85 2.85 0 0 1-.92-2.538h-2.96l.06-.22 1.105-4.068.242-.011 2.828-.126a.228.228 0 1 0-.02-.455l-2.683.119-.24.011.402-1.482.233.02 2.271.188h.02a.228.228 0 0 0 .02-.455l-2.189-.181-.233-.02.407-1.5.216.083 2.155.824q.04.015.083.016a.228.228 0 0 0 .083-.441l-2.2-.843-.216-.082L12.912.802l2.583 7.88c.608-.306 2.025-.932 3.86-.904h.016c1.834-.028 3.251.598 3.859.903L25.814.802l3.581 13.18-.216.082-2.2.842a.228.228 0 1 0 .166.425l2.155-.824.216-.083.408 1.5-.234.02-2.188.18a.23.23 0 0 0-.21.247.23.23 0 0 0 .229.209h.02l2.271-.188.234-.02.401 1.482-.24-.011-2.683-.119a.228.228 0 1 0-.02.455l2.828.126.242.01 1.105 4.069.06.22z"/><path fill="#000" fill-opacity="0.87" d="M21.187 14.95a.486.486 0 0 1-.49-.485v-2.937c0-.268.22-.485.49-.485s.489.217.489.485v2.937a.487.487 0 0 1-.49.484m-3.36-.512a.49.49 0 0 1-.54-.431l-.237-2.217a.486.486 0 0 1 .435-.533.49.49 0 0 1 .538.43l.239 2.217a.486.486 0 0 1-.435.534m8.189 11.33a.227.227 0 0 1-.223-.283 3.16 3.16 0 0 0-.089-1.83.227.227 0 0 1 .143-.289.23.23 0 0 1 .293.142 3.6 3.6 0 0 1 .1 2.089.23.23 0 0 1-.224.171m1.557-.295a.227.227 0 0 1-.21-.32q.181-.412.131-.825-.046-.36-.268-.72a.226.226 0 0 1 .075-.313.23.23 0 0 1 .316.074q.277.444.334.905c.044.355-.012.713-.168 1.063a.23.23 0 0 1-.21.136m-14.865.295a.23.23 0 0 1-.223-.173 3.6 3.6 0 0 1 .1-2.089.23.23 0 0 1 .292-.141c.12.041.184.171.143.29a3.16 3.16 0 0 0-.089 1.83.23.23 0 0 1-.168.275.2.2 0 0 1-.055.008m-1.557-.295a.23.23 0 0 1-.21-.136 2 2 0 0 1-.168-1.063q.057-.46.334-.905a.23.23 0 0 1 .316-.074.226.226 0 0 1 .075.314 1.8 1.8 0 0 0-.268.72c-.033.273.01.55.133.823a.227.227 0 0 1-.211.32m10.553-6.827c-.166.427-.549.888-1.035.958-.45.063-.865-.176-1.163-.546q-.042.118-.11.24c-.075.133-.477.787-1.147.787h-.018c-.638-.011-1.191-.587-1.288-1.34a.23.23 0 0 1 .2-.255.23.23 0 0 1 .257.197c.074.582.484.936.839.942h.009c.422 0 .714-.496.746-.553.159-.283.155-.572.126-.763q-.016-.052-.028-.105c-.443.05-.825-.103-.896-.384-.08-.319.276-.681.795-.809.52-.128 1.006.027 1.086.347.067.263-.162.555-.535.721q.017.065.03.147c.187.614.664.973 1.032.922.286-.04.554-.368.67-.669.099-.255.085-.496.056-.652a.23.23 0 0 1 .186-.265.23.23 0 0 1 .268.183c.039.215.057.543-.08.897"/></svg>